<svg width="15" height="15" viewBox="0 0 15 15" fill="none" xmlns="http://www.w3.org/2000/svg">
<path d="M2.25 15V11.775C1.5375 11.125 0.984375 10.3656 0.590625 9.49687C0.196875 8.62813 0 7.7125 0 6.75C0 4.875 0.65625 3.28125 1.96875 1.96875C3.28125 0.65625 4.875 0 6.75 0C8.3125 0 9.69687 0.459375 10.9031 1.37812C12.1094 2.29688 12.8938 3.49375 13.2563 4.96875L14.2312 8.8125C14.2937 9.05 14.25 9.26562 14.1 9.45938C13.95 9.65313 13.75 9.75 13.5 9.75H12V12C12 12.4125 11.8531 12.7656 11.5594 13.0594C11.2656 13.3531 10.9125 13.5 10.5 13.5H9V15H7.5V12H10.5V8.25H12.525L11.8125 5.34375C11.525 4.20625 10.9125 3.28125 9.975 2.56875C9.0375 1.85625 7.9625 1.5 6.75 1.5C5.3 1.5 4.0625 2.00625 3.0375 3.01875C2.0125 4.03125 1.5 5.2625 1.5 6.7125C1.5 7.4625 1.65313 8.175 1.95938 8.85C2.26562 9.525 2.7 10.125 3.2625 10.65L3.75 11.1V15H2.25ZM6.75 10.5C6.9625 10.5 7.14062 10.4281 7.28438 10.2844C7.42813 10.1406 7.5 9.9625 7.5 9.75C7.5 9.5375 7.42813 9.35938 7.28438 9.21562C7.14062 9.07187 6.9625 9 6.75 9C6.5375 9 6.35938 9.07187 6.21562 9.21562C6.07187 9.35938 6 9.5375 6 9.75C6 9.9625 6.07187 10.1406 6.21562 10.2844C6.35938 10.4281 6.5375 10.5 6.75 10.5ZM6.1875 8.1H7.33125C7.33125 7.7875 7.37187 7.53437 7.45312 7.34062C7.53438 7.14687 7.7 6.9125 7.95 6.6375C8.175 6.3875 8.39375 6.13438 8.60625 5.87813C8.81875 5.62188 8.925 5.2875 8.925 4.875C8.925 4.35 8.72188 3.90625 8.31563 3.54375C7.90938 3.18125 7.40625 3 6.80625 3C6.30625 3 5.85313 3.14375 5.44688 3.43125C5.04063 3.71875 4.75625 4.09375 4.59375 4.55625L5.625 4.9875C5.7125 4.7125 5.86562 4.49062 6.08437 4.32188C6.30312 4.15313 6.54375 4.06875 6.80625 4.06875C7.08125 4.06875 7.30937 4.14375 7.49062 4.29375C7.67188 4.44375 7.7625 4.6375 7.7625 4.875C7.7625 5.1375 7.68437 5.37187 7.52812 5.57812C7.37187 5.78438 7.1875 5.99375 6.975 6.20625C6.725 6.46875 6.53125 6.73125 6.39375 6.99375C6.25625 7.25625 6.1875 7.625 6.1875 8.1Z" fill="white"/>
</svg>
