<svg width="35" height="30" viewBox="0 0 35 30" fill="none" xmlns="http://www.w3.org/2000/svg">
<path d="M25 30L24.5 27.5C24.1667 27.3611 23.8542 27.2153 23.5625 27.0625C23.2708 26.9097 22.9722 26.7222 22.6667 26.5L20.25 27.25L18.5833 24.4167L20.5 22.75C20.4444 22.4167 20.4167 22.0556 20.4167 21.6667C20.4167 21.2778 20.4444 20.9167 20.5 20.5833L18.5833 18.9167L20.25 16.0833L22.6667 16.8333C22.9722 16.6111 23.2708 16.4236 23.5625 16.2708C23.8542 16.1181 24.1667 15.9722 24.5 15.8333L25 13.3333H28.3333L28.8333 15.8333C29.1667 15.9722 29.4792 16.1181 29.7708 16.2708C30.0625 16.4236 30.3611 16.6111 30.6667 16.8333L33.0833 16.0833L34.75 18.9167L32.8333 20.5833C32.8889 20.9167 32.9167 21.2778 32.9167 21.6667C32.9167 22.0556 32.8889 22.4167 32.8333 22.75L34.75 24.4167L33.0833 27.25L30.6667 26.5C30.3611 26.7222 30.0625 26.9097 29.7708 27.0625C29.4792 27.2153 29.1667 27.3611 28.8333 27.5L28.3333 30H25ZM26.6667 25C27.5833 25 28.3681 24.6736 29.0208 24.0208C29.6736 23.3681 30 22.5833 30 21.6667C30 20.75 29.6736 19.9653 29.0208 19.3125C28.3681 18.6597 27.5833 18.3333 26.6667 18.3333C25.75 18.3333 24.9653 18.6597 24.3125 19.3125C23.6597 19.9653 23.3333 20.75 23.3333 21.6667C23.3333 22.5833 23.6597 23.3681 24.3125 24.0208C24.9653 24.6736 25.75 25 26.6667 25ZM3.33333 23.3333V3.33333V6.66667V10.5C3.33333 10.3333 3.33333 10.2083 3.33333 10.125C3.33333 10.0417 3.33333 10 3.33333 10C3.33333 10 3.33333 11.1458 3.33333 13.4375C3.33333 15.7292 3.33333 18.4583 3.33333 21.625C3.33333 21.9306 3.33333 22.2153 3.33333 22.4792C3.33333 22.7431 3.33333 23.0278 3.33333 23.3333ZM3.33333 26.6667C2.41667 26.6667 1.63194 26.3403 0.979167 25.6875C0.326389 25.0347 0 24.25 0 23.3333V3.33333C0 2.41667 0.326389 1.63194 0.979167 0.979167C1.63194 0.326389 2.41667 0 3.33333 0H13.3333L16.6667 3.33333H30C30.9167 3.33333 31.7014 3.65972 32.3542 4.3125C33.0069 4.96528 33.3333 5.75 33.3333 6.66667V12.125C32.8333 11.7639 32.3056 11.4514 31.75 11.1875C31.1944 10.9236 30.6111 10.6944 30 10.5V6.66667H15.2917L11.9583 3.33333H3.33333V23.3333H15.125C15.2083 23.9167 15.3403 24.4861 15.5208 25.0417C15.7014 25.5972 15.9167 26.1389 16.1667 26.6667H3.33333Z" fill="#006172"/>
</svg>
